<svg id="Layer_1" data-name="Layer 1" xmlns="http://www.w3.org/2000/svg" viewBox="0 0 245.08 151.6"><defs><style>.cls-1{fill:#022e43;}.cls-2{fill:#5f35f5;}.cls-3{fill:#11175d;}</style></defs><path class="cls-1" d="M96.22,69.94" transform="translate(-2.46 -44.13)"/><circle class="cls-2" cx="82.18" cy="45" r="6.26"/><path class="cls-2" d="M64.86,82.87a6.26,6.26,0,1,1-6.26,6.26A6.25,6.25,0,0,1,64.86,82.87Z" transform="translate(-2.46 -44.13)"/><circle class="cls-2" cx="42.62" cy="45" r="6.26"/><path class="cls-2" d="M204.92,82.87a6.26,6.26,0,1,1-6.25,6.26A6.26,6.26,0,0,1,204.92,82.87Z" transform="translate(-2.46 -44.13)"/><path class="cls-2" d="M185.14,82.87a6.26,6.26,0,1,1-6.25,6.26A6.26,6.26,0,0,1,185.14,82.87Z" transform="translate(-2.46 -44.13)"/><path class="cls-2" d="M165.36,82.87a6.26,6.26,0,1,1-6.25,6.26A6.26,6.26,0,0,1,165.36,82.87Z" transform="translate(-2.46 -44.13)"/><path class="cls-2" d="M125,70.08a5.63,5.63,0,0,0-5.63,5.62v33.79a12.91,12.91,0,0,1-12.9,12.9H58.9l-9.13,9.85-9.13-9.85h-14a12.92,12.92,0,0,1-12.9-12.9V68.28a12.91,12.91,0,0,1,12.9-12.9h81.25a37.94,37.94,0,0,1,6.44-11.25H26.61A24.17,24.17,0,0,0,2.46,68.28v41.21a24.17,24.17,0,0,0,24.15,24.15h9.12l14,15.16,14-15.16h42.66a24.17,24.17,0,0,0,24.15-24.15V75.7A5.62,5.62,0,0,0,125,70.08Z" transform="translate(-2.46 -44.13)"/><path class="cls-3" d="M223.39,44.13H143.53a24.18,24.18,0,0,0-24.16,24.15V87.55a5.63,5.63,0,1,0,11.25,0V68.28a12.91,12.91,0,0,1,12.91-12.9h79.86a12.91,12.91,0,0,1,12.9,12.9v41.21a12.92,12.92,0,0,1-12.9,12.9h-14l-9.13,9.85-9.13-9.85h-49a37.94,37.94,0,0,1-6.44,11.25h50.5l14,15.16,14-15.16h9.12a24.17,24.17,0,0,0,24.15-24.15V68.28A24.17,24.17,0,0,0,223.39,44.13Z" transform="translate(-2.46 -44.13)"/><path class="cls-3" d="M21.68,195.29V165.42H31.2a33.05,33.05,0,0,1,4.45.29,11.84,11.84,0,0,1,3.72,1.13,6.24,6.24,0,0,1,2.55,2.36,7.7,7.7,0,0,1,.92,4,6.39,6.39,0,0,1-.65,3,5.08,5.08,0,0,1-1.85,2,7.63,7.63,0,0,1-2.86,1A8.17,8.17,0,0,1,41,180.37a5.88,5.88,0,0,1,2.19,2.42,8.28,8.28,0,0,1,.74,3.65,9.92,9.92,0,0,1-.74,4,7,7,0,0,1-2.15,2.75,9.31,9.31,0,0,1-3.45,1.58,19.12,19.12,0,0,1-4.71.52Zm8.08-17.92h1.58a6.79,6.79,0,0,0,2.8-.46,2.44,2.44,0,0,0,1.28-1.35,5.89,5.89,0,0,0,.34-2.14,3.48,3.48,0,0,0-.52-2,3.16,3.16,0,0,0-1.53-1.2,7,7,0,0,0-2.55-.41h-1.4Zm0,13.31h1.71c1.78,0,3-.37,3.68-1.11a4.61,4.61,0,0,0,1-3.24,6.63,6.63,0,0,0-.45-2.69,2.84,2.84,0,0,0-1.49-1.46,7,7,0,0,0-2.8-.46H29.76Z" transform="translate(-2.46 -44.13)"/><path class="cls-3" d="M48.21,195.29V165.42H60.48a12.7,12.7,0,0,1,5.42,1,6.87,6.87,0,0,1,3.16,2.95,9.86,9.86,0,0,1,1,4.7,8.61,8.61,0,0,1-1.39,5.3,7.2,7.2,0,0,1-3.79,2.52,19,19,0,0,1-5.37.7H56.29v12.69ZM56.29,178H59a4.52,4.52,0,0,0,2.25-.44,2.15,2.15,0,0,0,1-1.33,8.79,8.79,0,0,0,.24-2.25,8.65,8.65,0,0,0-.2-2,2.25,2.25,0,0,0-1-1.38,4.39,4.39,0,0,0-2.39-.52H56.29Z" transform="translate(-2.46 -44.13)"/><path class="cls-2" d="M96,195.73a14.58,14.58,0,0,1-6.56-1.23A7.13,7.13,0,0,1,86,191a12.89,12.89,0,0,1-1-5.26V175a13.07,13.07,0,0,1,1-5.33,7,7,0,0,1,3.41-3.45A14.73,14.73,0,0,1,96,165a15.09,15.09,0,0,1,6.34,1.09,6.62,6.62,0,0,1,3.23,3,10.26,10.26,0,0,1,.94,4.5v2.58H98.61v-3a13.25,13.25,0,0,0-.11-1.7,2.34,2.34,0,0,0-.66-1.35,2.62,2.62,0,0,0-1.85-.53,2.7,2.7,0,0,0-1.87.55,2.44,2.44,0,0,0-.77,1.39,9.73,9.73,0,0,0-.16,1.75V187.4a7.39,7.39,0,0,0,.21,1.82,2.32,2.32,0,0,0,.81,1.33,2.78,2.78,0,0,0,1.78.5,2.53,2.53,0,0,0,1.81-.54,2.37,2.37,0,0,0,.67-1.38,10.92,10.92,0,0,0,.14-1.73v-3.14h7.89v2.58a10.89,10.89,0,0,1-.92,4.56,6.74,6.74,0,0,1-3.2,3.17A14.38,14.38,0,0,1,96,195.73Z" transform="translate(-2.46 -44.13)"/><path class="cls-2" d="M110.56,195.29V165.42h7.31v10.43a9.8,9.8,0,0,1,3-1.71,10.36,10.36,0,0,1,3.38-.53,5,5,0,0,1,2.64.64,4.15,4.15,0,0,1,1.6,1.77,5.83,5.83,0,0,1,.54,2.56v16.71h-7.31V179.43a1.91,1.91,0,0,0-.31-1.18,1.43,1.43,0,0,0-1.18-.4,3.46,3.46,0,0,0-1.08.2,7.66,7.66,0,0,0-1.31.57v16.67Z" transform="translate(-2.46 -44.13)"/><path class="cls-2" d="M138.85,195.66a6.63,6.63,0,0,1-3.34-.78,5.21,5.21,0,0,1-2-2,5,5,0,0,1-.67-2.45,5.63,5.63,0,0,1,1-3.36,7.83,7.83,0,0,1,2.55-2.28,18.66,18.66,0,0,1,3.47-1.57c1.26-.43,2.51-.82,3.74-1.16V180a3.23,3.23,0,0,0-.13-1,1.31,1.31,0,0,0-.45-.66,1.56,1.56,0,0,0-1-.24,1.76,1.76,0,0,0-1,.22,1.14,1.14,0,0,0-.47.61,3.63,3.63,0,0,0-.18.86l-.18,1.55-6.86-.22a7.4,7.4,0,0,1,2.5-5.66c1.52-1.22,3.8-1.82,6.84-1.82q4,0,5.93,1.78a6,6,0,0,1,2,4.63v10c0,.88,0,1.66.07,2.32s.1,1.24.18,1.74.14.91.2,1.25h-6.58c-.09-.57-.2-1.18-.32-1.84a7.26,7.26,0,0,0-.27-1.19,5.25,5.25,0,0,1-1.69,2.36A5,5,0,0,1,138.85,195.66Zm2.62-4.06a2.23,2.23,0,0,0,.83-.15,2.32,2.32,0,0,0,.7-.4,4.5,4.5,0,0,0,.54-.52v-5.82c-.6.29-1.15.59-1.67.9a6.5,6.5,0,0,0-1.3,1,4.35,4.35,0,0,0-.84,1.2,3.59,3.59,0,0,0-.29,1.46A2.49,2.49,0,0,0,140,191,1.86,1.86,0,0,0,141.47,191.6Z" transform="translate(-2.46 -44.13)"/><path class="cls-2" d="M162.94,195.51a11.61,11.61,0,0,1-4.53-.7,4,4,0,0,1-2.19-2.05,8.12,8.12,0,0,1-.59-3.26V177.92h-2.52V174h2.52v-6.49h7.45V174h3.7v3.95h-3.7v11a1.46,1.46,0,0,0,.65,1.33,3.1,3.1,0,0,0,1.65.4c.39,0,.75,0,1.08,0l.9-.09v4.71c-.39,0-1,.12-1.85.19S163.82,195.51,162.94,195.51Z" transform="translate(-2.46 -44.13)"/><path class="cls-2" d="M171.24,195.29V165.42h5.69l7.49,14.38V165.42h6.68v29.87h-5.46l-7.49-15.49v15.49Z" transform="translate(-2.46 -44.13)"/><path class="cls-2" d="M204.68,195.66a13,13,0,0,1-4.88-.83,6.4,6.4,0,0,1-4.19-6.29v-7.82a6.32,6.32,0,0,1,4.22-6.29,12.92,12.92,0,0,1,4.85-.82,12.4,12.4,0,0,1,4.8.81,6,6,0,0,1,2.89,2.39,7.43,7.43,0,0,1,1,3.91V185H202.87v4.09a3.34,3.34,0,0,0,.23,1.33,1.46,1.46,0,0,0,.63.74,1.91,1.91,0,0,0,1,.22,2.34,2.34,0,0,0,1-.2,1.5,1.5,0,0,0,.67-.65,2.44,2.44,0,0,0,.25-1.22v-2.24h6.77v2.06A5.64,5.64,0,0,1,211,194,10.85,10.85,0,0,1,204.68,195.66Zm-1.81-13.46h3.7v-2.14a2.86,2.86,0,0,0-.25-1.33,1.34,1.34,0,0,0-.67-.66,2.48,2.48,0,0,0-1-.19,1.87,1.87,0,0,0-.92.22,1.49,1.49,0,0,0-.61.76,4.1,4.1,0,0,0-.23,1.53Z" transform="translate(-2.46 -44.13)"/><path class="cls-2" d="M225.43,195.51a11.63,11.63,0,0,1-4.54-.7,4,4,0,0,1-2.18-2.05,8.12,8.12,0,0,1-.59-3.26V177.92h-2.53V174h2.53v-6.49h7.44V174h3.7v3.95h-3.7v11a1.45,1.45,0,0,0,.66,1.33,3.06,3.06,0,0,0,1.65.4c.39,0,.75,0,1.08,0l.9-.09v4.71c-.39,0-1,.12-1.85.19S226.3,195.51,225.43,195.51Z" transform="translate(-2.46 -44.13)"/></svg>